//// ------------------------------------------------------
//// THIS FILE WAS AUTOMATICALLY GENERATED (DO NOT MODIFY)
//// ------------------------------------------------------

Table Department {
  id String [pk]
  department_name String [not null]
  academics Academic [not null]
}

Table Academic {
  id String [pk]
  academic_name String [not null]
  academic_level Int [not null]
  academic_type Int [not null]
  department_id String [not null]
  department Department [not null]
  academic_subject Academic_subject [not null]
  plo Plo [not null]
  lecturer Lecturer [not null]
}

Table Academic_subject {
  academic_id String [not null]
  subject_id String [not null]
  academic Academic [not null]
  subject Subject [not null]

  indexes {
    (academic_id, subject_id) [pk]
  }
}

Table Plo {
  id String [pk]
  plo_name String [not null]
  plo_content String [not null]
  academic_id String [not null]
  academic Academic [not null]
  plo_detail Plo_detail [not null]
  plo_clo Plo_clo [not null]
}

Table Plo_clo {
  plo_id String [not null]
  clo_id String [not null]
  plo Plo [not null]
  clo Clo [not null]

  indexes {
    (plo_id, clo_id) [pk]
  }
}

Table Plo_detail {
  id String [pk]
  plo_detail_name String [not null]
  plo_detail_content String [not null]
  plo_id String [not null]
  plo Plo [not null]
}

Table Subject {
  id String [pk]
  subject_name String [not null]
  practical_credits Int [not null]
  theoretical_credits Int [not null]
  description String
  lecturer_subject_manager_id String [not null]
  lecturer Lecturer [not null]
  academic_subject Academic_subject [not null]
  class Class [not null]
  clo Clo [not null]
  LecturerSubject LecturerSubject [not null]
  Approve Approve [not null]

  indexes {
    (id, lecturer_subject_manager_id) [unique]
  }
}

Table LecturerSubject {
  lecturer_id String [not null]
  subject_id String [not null]
  lecturer Lecturer [not null]
  subject Subject [not null]

  indexes {
    (lecturer_id, subject_id) [pk]
  }
}

Table Clo {
  id String [pk]
  clo_name String [not null]
  clo_content String [not null]
  clo_parent_id String
  subject_id String [not null]
  subject Subject [not null]
  plo_clo Plo_clo [not null]
  result Result [not null]
}

Table Exam {
  id String [pk]
  exam_name String [not null]
  date_exam DateTime [default: `now()`]
  class_id String [not null]
  class Class [not null]
  questions Question [not null]
}

Table Question {
  id String [pk]
  question_name String [not null]
  exam_id String [not null]
  exam Exam [not null]
  Result Result [not null]
}

Table Result {
  id String [pk]
  score Float
  max_score Float
  student_id String [not null]
  question_id String [not null]
  clo_id String [not null]
  clo Clo [not null]
  question Question [not null]
  student Student [not null]
}

Table Class {
  id String [pk]
  subject_id String [not null]
  subject Subject [not null]
  lecturer_id String [not null]
  lecturer Lecturer [not null]
  exams Exam [not null]
  ClassStudent ClassStudent [not null]
}

Table ClassStudent {
  student_id String [not null]
  class_id String [not null]
  student Student [not null]
  class Class [not null]

  indexes {
    (student_id, class_id) [pk]
  }
}

Table Role {
  id Int [pk]
  role_name String [unique, not null]
  user_account User_account [not null]
}

Table User_account {
  id String [pk]
  password String [not null]
  admin_id String [unique]
  student_id String [unique]
  lecturer_id String [unique]
  role_id Int [not null]
  role Role [not null]
  admin Admin
  lecturer Lecturer
}

Table Lecturer {
  id String [pk]
  first_name String [not null]
  last_name String [not null]
  email String [unique, not null]
  phone String [unique, not null]
  degree_id Int [not null]
  degree Degree [not null]
  academic_id String [not null]
  academic Academic [not null]
  subjects Subject [not null]
  class Class [not null]
  user_account User_account
  LecturerSubject LecturerSubject [not null]
  sender Approve [not null]
  receiver Approve [not null]
}

Table Student {
  id String [pk]
  first_name String [not null]
  last_name String [not null]
  Result Result [not null]
  ClassStudent ClassStudent [not null]
}

Table Admin {
  id String [pk]
  first_name String [not null]
  last_name String [not null]
  email String [unique, not null]
  phone String [unique, not null]
  user_account User_account
}

Table Degree {
  id Int [pk]
  degree_name String [not null]
  leturer Lecturer [not null]
}

Table Approve {
  id String [pk]
  sender_id String [not null]
  receiver_id String [not null]
  subject_id String [not null]
  data Json [not null]
  approve Boolean [not null, default: false]
  approve_date DateTime [default: `now()`]
  subject Subject [not null]
  receiver Lecturer [not null]
  sender Lecturer [not null]

  indexes {
    (subject_id, receiver_id, sender_id) [unique]
  }
}

Ref: Academic.department_id > Department.id [delete: Cascade]

Ref: Academic_subject.academic_id > Academic.id [delete: Cascade]

Ref: Academic_subject.subject_id > Subject.id [delete: Cascade]

Ref: Plo.academic_id > Academic.id [delete: Cascade]

Ref: Plo_clo.plo_id > Plo.id [delete: Cascade]

Ref: Plo_clo.clo_id > Clo.id [delete: Cascade]

Ref: Plo_detail.plo_id > Plo.id [delete: Cascade]

Ref: Subject.lecturer_subject_manager_id > Lecturer.id [delete: Cascade]

Ref: LecturerSubject.lecturer_id > Lecturer.id [delete: Cascade]

Ref: LecturerSubject.subject_id > Subject.id [delete: Cascade]

Ref: Clo.subject_id > Subject.id [delete: Cascade]

Ref: Exam.class_id > Class.id [delete: Cascade]

Ref: Question.exam_id > Exam.id [delete: Cascade]

Ref: Result.clo_id > Clo.id

Ref: Result.question_id > Question.id [delete: Cascade]

Ref: Result.student_id > Student.id [delete: Cascade]

Ref: Class.subject_id > Subject.id [delete: Cascade]

Ref: Class.lecturer_id > Lecturer.id [delete: Cascade]

Ref: ClassStudent.student_id > Student.id [delete: Cascade]

Ref: ClassStudent.class_id > Class.id [delete: Cascade]

Ref: User_account.role_id > Role.id [delete: Cascade]

Ref: User_account.admin_id - Admin.id [delete: Cascade]

Ref: User_account.lecturer_id - Lecturer.id [delete: Cascade]

Ref: Lecturer.degree_id > Degree.id [delete: Cascade]

Ref: Lecturer.academic_id > Academic.id [delete: Cascade]

Ref: Approve.subject_id > Subject.id [delete: Cascade]

Ref: Approve.receiver_id > Lecturer.id

Ref: Approve.sender_id > Lecturer.id